<mxfile host="app.diagrams.net" modified="2024-01-06T13:08:25.561Z" agent="Mozilla/5.0 (Windows NT 10.0; Win64; x64; rv:121.0) Gecko/20100101 Firefox/121.0" version="22.1.17" etag="6uLbe0xNcoQMlF5Juf-q" type="github">
  <diagram name="Page-1" id="tlDa7W7Wt1b1Jue4WE_G">
    <mxGraphModel>
      <root>
        <mxCell id="0" />
        <mxCell id="1" parent="0" />
      </root>
    </mxGraphModel>
  </diagram>
</mxfile>
